{"title":"Return to Sleepaway Camp (2008) fiveofseven zombiRG","uid":15525260,"size":1175306134,"categoryP":"video","categoryS":"movies","magnet":"?xt=urn:btih:98a3e3271b7496a8030b00e63d54682b878e8f7b&amp;dn=Return+to+Sleepaway+Camp+%282008%29+fiveofseven+zombiRG&amp;tr=udp%3A%2F%2Ftracker.leechers-paradise.org%3A6969&amp;tr=udp%3A%2F%2Fzer0day.ch%3A1337&amp;tr=udp%3A%2F%2Fopen.demonii.com%3A1337&amp;tr=udp%3A%2F%2Ftracker.coppersurfer.tk%3A6969&amp;tr=udp%3A%2F%2Fexodus.desync.com%3A6969","seeders":6,"leechers":2,"uploader":"fiveofseven","files":3,"time":1470776990,"description":"AAC 2.0 Track 1 &amp; AC3 5.1 Track 2\r\n\r\n\r\nPLOT - It's summer camp as usual at Camp Manabe where the kids torment \r\neach other for fun while the underpaid camp staff provides as little \r\nsupervision as possible. Greedy camp owner Frank and junior partner \r\nRonnie do their best to keep everyone in line, but something sinister \r\nis about to put a slash in the roster. When campers and staff mysteriously \r\nbegin disappearing and turning into gruesome corpses, paranoid Ronnie can't \r\nshake the memory of a series of grisly murders that took place at Camp Arawak, \r\nwhere he worked two decades earlier. Has a ghost from the past come back \r\nto haunt him? As the paranoia worsens, Ronnie's list of possible killers \r\nstarts growing just like the body count. Everyone becomes a suspect from \r\nvicious kids to shady members of the camp staff, and even former Camp Arawak \r\ncamper Ricky who mysteriously works nearby. Who is knocking off these victims \r\nand why? Only one thing is for certain, something is carving a \r\nbloody new trail at Sleepaway Camp where kids can be so mean.\r\n\r\n  \nhttp://extraimago.com/images/2016/08/09/d447a6ad61affb6e7d24fe16a7b13125.png \r\n  \nhttp://extraimago.com/images/2016/08/09/34b92e628995d78e289a4f40d40d8793.png \r\n  \nhttp://extraimago.com/images/2016/08/09/254e938877de7e80895033407bfa50fd.png \r\n  \nhttp://extraimago.com/images/2016/08/09/a7756bf386cd737f9598a864be498738.png \r\n \r\n\r\nINFO\r\n\r\nEncoder: fiveofseven\r\nSource: DVD\r\nRating: R\r\nGenre: Comedy, Horror\r\nSubtitles: English\r\nPoster:\r  http://extraimago.com/images/2016/08/09/b4aed5e2192c1bf4d869586643b01b48.jpg \r\n \r\nGeneral\r\nComplete name                            : Return to Sleepaway Camp (fiveofseven zombiRG).mp4\r\nFormat                                   : MPEG-4\r\nCodec ID                                 : M4V \r\nFile size                                : 1.09 GiB\r\nDuration                                 : 1h 26mn\r\nOverall bit rate mode                    : Variable\r\nOverall bit rate                         : 1 802 Kbps\r\nEncoded date                             : UTC 2016-06-26 04:56:28\r\nTagged date                              : UTC 2016-07-01 16:41:29\r\nWriting application                      : My MP4Box GUI 0.6.0.6 &lt;http://my-mp4box-gui.zymichost.com&gt;\r\n\r\nVideo\r\nID                                       : 1\r\nFormat                                   : AVC\r\nFormat/Info                              : Advanced Video Codec\r\nFormat profile                           :   \r\nFormat settings, CABAC                   : Yes\r\nFormat settings, ReFrames                : 7 frames\r\nCodec ID                                 : avc1\r\nCodec ID/Info                            : Advanced Video Coding\r\nDuration                                 : 1h 26mn\r\nBit rate                                 : 1 350 Kbps\r\nMaximum bit rate                         : 5 861 Kbps\r\nWidth                                    : 720 pixels\r\nHeight                                   : 394 pixels\r\nDisplay aspect ratio                     : 1.85:1\r\nFrame rate mode                          : Constant\r\nFrame rate                               : 23.976 fps\r\nColor space                              : YUV\r\nChroma subsampling                       : 4:2:0\r\nBit depth                                : 8 bits\r\nScan type                                : Progressive\r\nBits/(Pixel*Frame)                       : 0.198\r\nStream size                              : 834 MiB (75%)\r\nTitle                                    : rtsc.mp4\r\nWriting library                          : x264 core 146 r2538 121396c\r\nLanguage                                 : English\r\nEncoded date                             : UTC 2016-06-26 03:01:15\r\nTagged date                              : UTC 2016-06-26 04:57:12\r\n\r\nAudio #1\r\nID                                       : 2\r\nFormat                                   : AAC\r\nFormat/Info                              : Advanced Audio Codec\r\nFormat profile                           : LC\r\nCodec ID                                 : 40\r\nDuration                                 : 1h 26mn\r\nBit rate mode                            : Variable\r\nBit rate                                 : 128 Kbps\r\nMaximum bit rate                         : 134 Kbps\r\nChannel count                            : 2 channels\r\nChannel positions                        : Front: L R\r\nSampling rate                            : 48.0 KHz\r\nCompression mode                         : Lossy\r\nDelay relative to video                  : 125ms\r\nStream size                              : 79.1 MiB (7%)\r\nTitle                                    : aac.mp4\r\nLanguage                                 : English\r\nEncoded date                             : UTC 2016-06-26 04:56:55\r\nTagged date                              : UTC 2016-06-26 04:57:12\r\n\r\nAudio #2\r\nID                                       : 3\r\nFormat                                   : AC-3\r\nFormat/Info                              : Audio Coding 3\r\nMode extension                           : CM (complete main)\r\nFormat settings, Endianness              : Big\r\nCodec ID                                 : ac-3\r\nDuration                                 : 1h 26mn\r\nBit rate mode                            : Constant\r\nBit rate                                 : 320 Kbps\r\nChannel count                            : 6 channels\r\nChannel positions                        : Front: L C R, Side: L R, LFE\r\nSampling rate                            : 48.0 KHz\r\nBit depth                                : 16 bits\r\nCompression mode                         : Lossy\r\nDelay relative to video                  : 125ms\r\nStream size                              : 198 MiB (18%)\r\nTitle                                    : ac3 5.1.ac3\r\nLanguage                                 : English\r\nEncoded date                             : UTC 2016-06-26 04:57:00\r\nTagged date                              : UTC 2016-06-26 04:57:12\r\n\r\n  \nhttp://extraimago.com/images/2016/07/27/fiveofsseven_zps27a01108.png","torrent":{"xt":"urn:btih:98a3e3271b7496a8030b00e63d54682b878e8f7b","amp;dn":"Return+to+Sleepaway+Camp+%282008%29+fiveofseven+zombiRG","amp;tr":["udp%3A%2F%2Ftracker.leechers-paradise.org%3A6969","udp%3A%2F%2Fzer0day.ch%3A1337","udp%3A%2F%2Fopen.demonii.com%3A1337","udp%3A%2F%2Ftracker.coppersurfer.tk%3A6969","udp%3A%2F%2Fexodus.desync.com%3A6969"],"infoHash":"98a3e3271b7496a8030b00e63d54682b878e8f7b","infoHashBuffer":{"type":"Buffer","data":[152,163,227,39,27,116,150,168,3,11,0,230,61,84,104,43,135,142,143,123]},"announce":[],"urlList":[]}}